<?xml version="1.0" encoding="UTF-8"?>
<svg width="20px" height="20px" viewBox="0 0 20 20" version="1.1" xmlns="http://www.w3.org/2000/svg" xmlns:xlink="http://www.w3.org/1999/xlink">
    <!-- Generator: Sketch 48.2 (47327) - http://www.bohemiancoding.com/sketch -->
    <title>github-sign</title>
    <desc>Created with Sketch.</desc>
    <defs></defs>
    <g id="Page-1" stroke="none" stroke-width="1" fill="none" fill-rule="evenodd">
        <g id="github-sign" fill="#000000" fill-rule="nonzero">
            <path d="M18.8797267,1.09899772 C18.1469704,0.366378132 17.2648747,0 16.2327563,0 L3.74601367,0 C2.71421412,0 1.83179954,0.366378132 1.09899772,1.09899772 C0.366378132,1.83175399 0,2.71416856 0,3.74601367 L0,16.2329385 C0,17.2648292 0.366378132,18.1471526 1.09899772,18.8797722 C1.83175399,19.6125285 2.71421412,19.9789066 3.74601367,19.9789066 L6.65958998,19.9789066 C6.85020501,19.9789066 6.99339408,19.9723462 7.08874715,19.95959 C7.18405467,19.9464692 7.27936219,19.8900683 7.37480638,19.7902506 C7.47029613,19.690615 7.51785877,19.5453303 7.51785877,19.3546241 C7.51785877,19.3287472 7.51558087,19.0336219 7.51129841,18.4700228 C7.50687927,17.9062415 7.50473804,17.4597267 7.50473804,17.1301595 L7.20555809,17.1822323 C7.01480638,17.2168565 6.77416856,17.2321185 6.48364465,17.2277449 C6.1932574,17.2233713 5.8918451,17.1931207 5.57972665,17.1367198 C5.26742597,17.0802733 4.97703872,16.9502506 4.70820046,16.7466515 C4.43949886,16.5426879 4.24874715,16.2761276 4.13599089,15.946697 L4.00587699,15.6473349 C3.91917995,15.4481093 3.78268793,15.2268793 3.59621868,14.9842825 C3.40974943,14.7413667 3.22118451,14.5765831 3.0304328,14.4898861 L2.93936219,14.4248292 C2.87872437,14.3815034 2.82236902,14.3292483 2.77029613,14.2686105 C2.71831435,14.2077904 2.67931663,14.1470159 2.65330296,14.0865148 C2.62728929,14.0256948 2.64888383,13.9758087 2.71831435,13.9366743 C2.78774487,13.8977221 2.91334852,13.8784055 3.09553531,13.8784055 L3.35558087,13.9173576 C3.52906606,13.9519818 3.74355353,14.0559453 3.99949886,14.2294761 C4.25526196,14.4028702 4.46551253,14.6282916 4.63029613,14.9056948 C4.82984055,15.2613212 5.07025057,15.5321185 5.35220957,15.7185877 C5.63394077,15.9052392 5.91799544,15.998451 6.20410023,15.998451 C6.49020501,15.998451 6.73731207,15.9767654 6.94551253,15.9335763 C7.15348519,15.8901139 7.34861048,15.8249203 7.53079727,15.7382232 C7.60883827,15.1573121 7.82132118,14.7104784 8.16806378,14.3983599 C7.67384966,14.346287 7.22947608,14.2683371 6.83480638,14.1641913 C6.44036446,14.0600456 6.03275626,13.8910706 5.61225513,13.6568565 C5.19157175,13.4226879 4.84259681,13.1323918 4.56510251,12.7853303 C4.28765376,12.4382688 4.05995444,11.9830524 3.88232346,11.41959 C3.70460137,10.8558087 3.61571754,10.2053759 3.61571754,9.46838269 C3.61571754,8.41922551 3.95835991,7.52592255 4.6433713,6.78892938 C4.32246014,5.99986333 4.35275626,5.11548975 4.7343508,4.13553531 C4.98583144,4.05744875 5.35876993,4.11603645 5.85298405,4.31116173 C6.34728929,4.50642369 6.70920273,4.67339408 6.93908884,4.81193622 C7.16897494,4.95052392 7.35316629,5.06769932 7.49193622,5.16318907 C8.29854214,4.9377221 9.13093394,4.82501139 9.98933941,4.82501139 C10.8476993,4.82501139 11.6802278,4.9377221 12.4868793,5.16318907 L12.981139,4.85102506 C13.3194533,4.6428246 13.7182688,4.45207289 14.1779043,4.27872437 C14.6374943,4.1053303 14.9886105,4.05758542 15.2315262,4.13567198 C15.6215945,5.11562642 15.656492,6 15.3353531,6.7890205 C16.0203645,7.52610478 16.3630979,8.41936219 16.3630979,9.46851936 C16.3630979,10.2056492 16.2742141,10.8582688 16.096492,11.4261048 C15.9189066,11.9940774 15.6892483,12.4494761 15.4071982,12.7919818 C15.125467,13.134533 14.7742141,13.4226424 14.353713,13.6569476 C13.9331207,13.8909795 13.5255581,14.0602733 13.1309339,14.1641002 C12.7363554,14.268246 12.2920273,14.3465148 11.7977677,14.3985877 C12.2483827,14.788656 12.4738041,15.4041458 12.4738041,16.2454214 L12.4738041,19.3542141 C12.4738041,19.5016856 12.4953075,19.62082 12.5386788,19.7118907 C12.5823235,19.8029157 12.6515718,19.8656036 12.7469248,19.9005467 C12.8426879,19.9351708 12.9268337,19.9568109 13.0007289,19.9654214 C13.0746241,19.974123 13.1806378,19.9784966 13.3194077,19.9784966 L16.2329841,19.9784966 C17.2647836,19.9784966 18.1472437,19.6121185 18.8796811,18.8793622 C19.6124374,18.1466059 19.9788155,17.2641458 19.9788155,16.2323462 L19.9788155,3.74601367 C19.9787244,2.71416856 19.6123462,1.83161731 18.8797267,1.09899772 Z" id="Shape"></path>
        </g>
    </g>
</svg>