<?xml version="1.0" encoding="UTF-8"?>
<svg width="30px" height="20px" viewBox="0 0 30 20" version="1.1" xmlns="http://www.w3.org/2000/svg" xmlns:xlink="http://www.w3.org/1999/xlink">
    <!-- Generator: Sketch 48.2 (47327) - http://www.bohemiancoding.com/sketch -->
    <title>soundcloud-logo</title>
    <desc>Created with Sketch.</desc>
    <defs></defs>
    <g id="Page-1" stroke="none" stroke-width="1" fill="none" fill-rule="evenodd">
        <g id="soundcloud-logo" fill="#000000" fill-rule="nonzero">
            <path d="M0,14.7489474 C0,16.3505263 0.461666667,17.7826316 1.18933333,18.7478947 L1.18933333,10.7526316 C0.461666667,11.7152632 0,13.1484211 0,14.7489474 M2.44733333,9.70105263 L2.44733333,19.7973684 C2.74433333,19.9268421 3.058,20 3.381,20 L3.70566667,20 L3.70566667,9.52315789 C3.59733333,9.50894737 3.489,9.49947368 3.379,9.49947368 C3.055,9.49947368 2.74333333,9.57052632 2.44733333,9.70105263 M5.226,10.3563158 C5.14,10.2694737 5.05433333,10.1894737 4.963,10.1157895 L4.963,20 L6.22066667,20 L6.22066667,6.77947368 C5.72,7.81105263 5.371,9.02894737 5.226,10.3563158 M7.479,4.92052632 L7.479,20 L8.737,20 L8.737,3.94263158 C8.28733333,4.18157895 7.86533333,4.51421053 7.479,4.92052632 M9.99466667,3.53157895 L9.99466667,20 L11.2526667,20 L11.2526667,3.59210526 C10.995,3.53157895 10.7296667,3.5 10.4593333,3.5 C10.302,3.5 10.147,3.51210526 9.99466667,3.53157895 M13.204,4.69263158 C12.7933333,4.30842105 12.3513333,4.00526316 11.882,3.80315789 L11.882,20 L13.7686667,20 L13.7686667,3.49789474 C13.5626667,3.87315789 13.3733333,4.27368421 13.204,4.69263158 M14.3983333,2.50210526 L14.3983333,20 L26.349,20 L26.349,19.9768421 C28.8653333,19.7226316 30,17.2578947 30,14.25 C30,11.0736842 28.4793333,8.5 26.4323333,8.5 C25.907,8.5 25.4743333,8.67105263 25.0173333,8.98052632 C24.69,3.93736842 21.9803333,0 18.644,0 C17.012,0 15.5286667,0.943684211 14.3983333,2.50210526" id="SoundCloud"></path>
        </g>
    </g>
</svg>